<?xml version="1.0" encoding="utf-8" standalone="no"?>
<svg xmlns="http://www.w3.org/2000/svg" xmlns:xlink="http://www.w3.org/1999/xlink" width="297.000mm" height="210.000mm" viewBox="0.000000 0.000000 297.000000 210.000000" stroke-linejoin="round" stroke-linecap="round" fill="none" fill-rule="evenodd" bobstVersion="1.1">
  <desc>3DVIA Composer Export</desc>
  <script type="text/ecmascript"><![CDATA[
// Include version 4.0.0.0

function ShowHotSpot(evt,hotspotid)  
{  
	var svgDocument = evt.target.ownerDocument;  
	var strId = "hotspot."+hotspotid;  
	var hotspot = svgDocument.getElementById(strId);  
	if(hotspot) {  
		hotspot.setAttribute("opacity",".5");
    }  
}  

function HideHotSpot(evt,hotspotid)  
{  
	var svgDocument = evt.target.ownerDocument;  
	var strId = "hotspot."+hotspotid;  
	var hotspot = svgDocument.getElementById(strId);  
	if(hotspot)  
		hotspot.setAttribute("opacity","0"); 
}  

function ShowToolTip(evt,hotspotid,strTooltip)  
{  
  // PV4-ajout
  var message = [ evt.clientX, evt.clientY, hotspotid, strTooltip ];
	parent.postMessage(message, "*")
}


function viewPart(id)
{
	// PV4-ajout post.message for cross origin
	var message = [ '0', '0', id, ''];
  parent.postMessage(message, "*");
} 

function viewDrawing(id)
{
	var message = [ '0', '0', '', id];
  parent.postMessage(message, "*");
} 


				
]]></script>
  <defs />
  <g>
    <path style="fill:#000000;fill-opacity:0.098;fill-rule:evenodd" d="M127.06,40.16L126.95,40.49L126.00,40.60L126.00,39.89L126.75,39.85zM128.09,39.29L130.47,38.70L131.19,37.51L131.19,41.79L130.89,42.39L129.99,42.97L129.72,47.15L129.01,47.65L128.10,47.64zM127.37,51.72L127.21,50.60L127.79,50.26L128.80,50.27L128.80,51.90zM134.76,58.13L133.55,59.03L133.28,53.86L128.41,56.53L128.23,62.00L127.93,62.29L126.92,62.59L127.02,54.55L134.77,50.30zM127.67,75.77L127.49,74.98L128.54,74.66L128.50,75.96zM127.07,80.58L126.94,81.17L124.65,82.49L124.33,81.81L124.32,80.37L124.82,79.66L125.83,79.68zM128.51,90.15L128.70,77.92L132.99,75.54L132.99,87.55L131.38,88.62L131.19,182.57L129.91,183.67L128.09,183.75L128.23,90.12zM130.91,40.16L130.92,40.89L130.57,41.49L129.57,41.48L129.65,40.57L130.46,39.87z" />
    <g id="Actor_2.0">
      <g style="stroke:#000000;stroke-width:0.176">
        <path d="M122.50,60.65L124.38,59.56L124.38,59.57" />
        <path d="M122.03,52.24L126.73,54.95L126.73,63.09" />
        <path d="M126.73,54.95L130.04,53.04" />
        <path d="M127.06,50.98L127.16,50.83L127.31,50.70L127.50,50.58L127.72,50.49L127.96,50.42L128.23,50.37L128.51,50.36L128.78,50.38L129.04,50.42L129.29,50.49L129.51,50.59L129.69,50.71L129.84,50.85L129.93,51.00L129.98,51.15L129.98,51.31L129.93,51.47L129.83,51.62L129.68,51.75L129.49,51.87L129.27,51.96L129.02,52.03L128.76,52.07L128.48,52.09L128.21,52.07L127.94,52.03L127.70,51.95L127.48,51.86L127.31,51.75L127.29,51.74L127.15,51.60L127.06,51.46L127.06,50.98L127.01,51.14L127.00,51.30L127.05,51.45L127.06,51.46" />
        <path d="M127.18,51.63L127.31,51.51L127.50,51.40L127.72,51.30L127.96,51.23L128.23,51.19L128.51,51.18L128.78,51.19L129.04,51.24L129.29,51.31L129.51,51.41L129.69,51.52L129.81,51.63" />
        <path d="M129.08,56.85L130.96,55.77L130.96,55.77" />
        <path d="M128.61,56.58L133.31,53.87L133.31,59.29" />
        <path d="M131.87,51.99L134.95,50.21" />
      </g>
      <g style="stroke:#000000;stroke-width:0.265">
        <path d="M134.95,51.75L134.95,50.21L130.26,47.49L122.03,52.24L122.03,60.38L122.50,60.65L124.38,59.57" />
        <path d="M124.38,59.57L126.26,62.82L126.73,63.09L128.38,62.14L128.38,56.72L128.61,56.58" />
        <path d="M130.96,55.77L129.08,56.85L128.61,56.58" />
        <path d="M134.95,52.65L134.95,58.35L133.31,59.29L132.84,59.02L130.96,55.77" />
      </g>
    </g>
    <g id="Actor_3.0">
      <g style="stroke:#000000;stroke-width:0.176">
        <path d="M125.94,42.24L125.94,41.95" />
        <path d="M125.94,41.00L125.94,38.23L126.13,38.03L126.23,38.19L126.36,38.34L126.51,38.47L126.70,38.60L126.90,38.72L127.13,38.81L127.38,38.90L127.64,38.96L127.91,39.01L128.19,39.04L128.48,39.05L128.77,39.04L129.05,39.02L129.32,38.97L129.58,38.91L129.83,38.82L130.06,38.73L130.27,38.61L130.46,38.49L130.62,38.35L130.75,38.20L130.84,38.05L130.91,37.89L130.95,37.72L130.95,37.56L130.92,37.39L130.85,37.23L131.04,37.36" />
        <path d="M127.22,41.72L127.23,41.71L127.32,41.63L127.38,41.55L127.43,41.46L127.47,41.35L127.48,41.23L127.47,41.11L127.46,41.03L127.43,40.95L127.40,40.87L127.36,40.79L127.28,40.66L127.18,40.53L127.07,40.41L126.98,40.32L126.88,40.24L126.78,40.17L126.69,40.10L126.60,40.05L126.51,40.00L126.45,39.98L126.40,39.96L126.34,39.94L126.30,39.94L126.21,39.95L126.16,39.97L126.12,40.01L126.09,40.06L126.07,40.12L126.05,40.20L126.04,40.28L126.04,40.40L126.04,40.53L126.06,40.67L126.07,40.76L126.09,40.86L126.13,41.01L126.15,41.06" />
        <path d="M126.09,40.86L126.99,40.34" />
        <path d="M126.13,38.03L126.07,37.87L126.04,37.71L126.04,37.54L126.07,37.38L126.14,37.23L126.14,37.22L126.24,37.06L126.37,36.92L126.53,36.78L126.71,36.65" />
        <path d="M125.84,37.72L125.84,37.89L125.88,38.06L125.94,38.23L126.04,38.39L126.17,38.54L126.33,38.69L126.52,38.82L126.73,38.95L126.97,39.05L127.22,39.14L127.49,39.22L127.77,39.27L128.06,39.31L128.36,39.33L128.66,39.33L128.95,39.31L129.24,39.27L129.52,39.21L129.79,39.14L130.04,39.04L130.27,38.94L130.48,38.81L130.67,38.68L130.83,38.53L130.95,38.38L131.05,38.21L131.12,38.05L131.15,37.87" />
        <path d="M127.22,43.18L127.22,47.28" />
        <path d="M126.52,42.84L126.73,42.96L126.97,43.07L127.22,43.16L127.49,43.23L127.77,43.29L128.06,43.32L128.36,43.34L128.66,43.34L128.95,43.32L129.24,43.28L129.52,43.23L129.79,43.15L130.04,43.06L130.27,42.95L130.48,42.83" />
        <path d="M126.90,43.06L126.90,43.05" />
        <path d="M127.17,43.17L127.38,43.24L127.29,43.21" />
        <path d="M129.82,43.17L129.59,43.25L129.55,43.25L129.32,43.31L129.06,43.35L128.77,43.38L128.48,43.39L128.19,43.38L127.91,43.35L127.64,43.30L127.38,43.24" />
        <path d="M130.90,40.06L130.92,40.11L130.93,40.16L130.94,40.22L130.95,40.28L130.95,40.40L130.95,40.53L130.93,40.67L130.91,40.80L130.88,40.93L130.83,41.09L130.77,41.24L130.70,41.38L130.64,41.48L130.56,41.57L130.48,41.65L130.40,41.71L130.31,41.76L130.21,41.79L130.14,41.80L130.07,41.81L130.00,41.80L129.93,41.79L129.81,41.74L129.71,41.68L129.63,41.59L129.59,41.53L129.56,41.47L129.52,41.36L129.51,41.24L129.51,41.11L129.54,41.00L129.58,40.90L129.63,40.79L129.70,40.68L129.77,40.58L129.86,40.48L129.99,40.34L130.06,40.28L130.13,40.22L130.20,40.17L130.27,40.12L130.36,40.06L130.45,40.01L130.53,39.98L130.61,39.95L130.68,39.94L130.69,39.94L130.90,40.06L130.86,40.00L130.80,39.96L130.74,39.94L130.69,39.94" />
        <path d="M130.06,43.07L130.07,43.06" />
        <path d="M130.29,36.67L130.47,36.79L130.63,36.93L130.76,37.08L130.85,37.23" />
      </g>
      <g style="stroke:#000000;stroke-width:0.265">
        <path d="M127.17,43.17L127.13,43.16L126.90,43.06L126.70,42.94L126.52,42.84L126.33,42.70L126.17,42.56L126.04,42.40L125.94,42.24L125.88,42.08L125.84,41.92" />
        <path d="M129.82,43.17L130.06,43.07L130.27,42.95L130.48,42.83L130.67,42.69L130.83,42.55L130.95,42.39L131.05,42.23L131.12,42.06L131.15,41.89L131.15,37.87L131.15,37.70L131.11,37.53L131.04,37.36L130.94,37.20L130.81,37.05L130.65,36.90L130.47,36.77L130.29,36.67L130.08,36.55L129.86,36.45L129.61,36.37L129.35,36.30L129.07,36.25L128.79,36.22L128.51,36.21L128.22,36.22L127.94,36.25L127.67,36.30L127.40,36.36L127.15,36.44L126.92,36.54L126.71,36.65L126.50,36.78L126.32,36.91L126.16,37.06L126.03,37.22L125.94,37.38L125.87,37.55L125.84,37.72L125.84,40.97" />
        <path d="M127.53,47.59L127.91,47.80L128.06,47.86L128.22,47.90L128.40,47.92L128.57,47.92L128.75,47.90L128.92,47.87L129.07,47.81L129.41,47.62L129.24,47.69L129.06,47.75L128.87,47.80L128.66,47.82L128.46,47.83L128.25,47.81L128.05,47.78L127.86,47.73L127.68,47.67L127.53,47.59L127.40,47.49L127.29,47.39L127.22,47.28L127.18,47.16L127.17,47.04L127.17,43.17" />
        <path d="M126.90,43.05L126.70,42.94" />
        <path d="M129.41,47.62L129.55,47.53L129.66,47.43L129.74,47.32L129.80,47.20L129.82,47.08L129.82,43.17" />
        <path d="M130.27,42.95L130.07,43.06" />
      </g>
    </g>
    <g id="Actor_1.0">
      <g style="stroke:#000000;stroke-width:0.176">
        <path d="M123.80,75.48L128.49,78.19L128.49,90.40L126.61,89.32L126.61,183.58L126.73,183.64" />
        <path d="M125.22,83.68L124.96,83.32L124.73,82.94L124.53,82.54L124.38,82.13L124.28,81.72L124.23,81.33L124.23,80.97L124.29,80.64L124.39,80.35L124.54,80.12L124.74,79.95L124.97,79.83L125.24,79.79L125.53,79.81L125.84,79.90L126.15,80.05L126.47,80.27L126.77,80.54L127.06,80.85L127.33,81.21L127.56,81.59L127.75,81.99L127.82,82.18L125.22,83.68L125.51,83.99L125.82,84.26L126.14,84.48L126.45,84.63L126.76,84.72L127.05,84.74L127.32,84.69L127.55,84.58L127.75,84.41L127.90,84.17L128.00,83.89L128.06,83.56L128.06,83.19L128.01,82.80L127.90,82.40L127.82,82.18" />
        <path d="M126.61,89.32L125.85,88.87" />
        <path d="M126.68,183.61L126.97,183.75L127.37,183.88L127.81,183.97L128.26,184.02L128.73,184.02L129.18,183.97L129.62,183.88L130.02,183.75L130.31,183.61L130.26,183.64" />
        <path d="M127.46,75.74L127.53,75.82L127.71,75.95L127.95,76.05L128.23,76.12L128.52,76.13L128.81,76.11L129.09,76.04L129.31,75.93L129.48,75.80L129.58,75.66L129.58,75.31L129.46,75.14L129.27,75.01L129.04,74.91L128.76,74.85L128.47,74.83L128.18,74.86L127.91,74.93L127.68,75.03L127.50,75.17L127.40,75.33L127.36,75.50L127.41,75.67L127.46,75.74" />
        <path d="M128.49,90.40L131.14,88.87" />
        <path d="M128.49,78.19L133.19,75.48" />
        <path d="M129.58,75.31L129.62,75.47L129.58,75.66" />
        <path d="M130.31,183.61L130.37,183.58" />
      </g>
      <g style="stroke:#000000;stroke-width:0.265">
        <path d="M131.14,182.46L131.14,181.31L131.14,182.63L131.06,182.89L130.90,183.14L130.67,183.37L130.37,183.58L129.92,183.81L129.55,183.93L129.14,184.02L128.71,184.06L128.28,184.06L127.85,184.02L127.44,183.93L127.06,183.81L126.73,183.64L126.32,183.37L126.08,183.14L125.93,182.89L125.85,182.63L125.85,88.87L123.80,87.69L123.80,75.48L128.49,72.77L133.19,75.48L133.19,87.69L132.00,88.37" />
        <path d="M125.85,182.46L125.85,181.31" />
        <path d="M131.14,181.31L131.14,88.87L131.18,88.85" />
      </g>
    </g>
    <g id="Actor_4.0">
      <g style="stroke:#000000;stroke-width:0.176">
        <path d="M126.57,69.19L126.58,69.26L126.69,69.59L127.14,69.99L127.86,70.23L128.69,70.28L129.50,70.11L129.83,69.92L130.11,69.75L130.21,69.61L130.40,69.28L130.39,69.22L130.40,69.25L130.39,69.25" />
        <path d="M127.12,70.00L127.12,70.00" />
        <path d="M127.00,69.86L126.69,69.56" />
        <path d="M126.57,69.19L126.59,69.09L126.67,69.32L126.69,69.35L127.11,69.70L127.79,69.91L128.62,69.93L129.42,69.73L130.01,69.39L130.21,69.14L130.35,68.94L130.38,68.79L130.39,68.73" />
        <path d="M126.69,69.35L126.89,69.55L126.92,69.57" />
        <path d="M127.09,68.99L127.41,69.12L127.79,69.21L128.20,69.24L128.64,69.22L129.13,69.12L129.58,68.96L129.95,68.73L130.23,68.46L130.42,67.94" />
        <path d="M127.79,69.84L127.43,69.73L127.10,69.60" />
        <path d="M127.24,69.55L127.50,69.65L127.73,69.71" />
        <path d="M127.12,69.58L126.88,69.40L126.69,69.23" />
        <path d="M127.20,69.53L127.21,69.53" />
        <path d="M127.15,69.79L127.13,69.78L127.08,69.72" />
        <path d="M126.78,68.75L126.73,68.87L126.82,69.20L126.84,69.22" />
        <path d="M126.80,69.10L126.76,68.99L126.76,68.99" />
        <path d="M126.77,69.01L126.81,68.78" />
        <path d="M126.91,68.85L126.78,68.76L126.74,68.70L126.69,68.63" />
        <path d="M126.90,68.84L126.87,68.92" />
        <path d="M127.28,68.36L127.26,68.40L127.25,68.41" />
        <path d="M127.10,68.28L127.17,68.32L127.20,68.33L127.32,68.38" />
        <path d="M127.17,68.32L127.54,68.45L127.96,68.52L128.41,68.53L128.87,68.48L129.51,68.28L130.02,67.97L130.24,67.69" />
        <path d="M127.00,67.98L126.81,67.77L126.73,67.54L126.77,67.31L126.77,67.31" />
        <path d="M126.82,68.46L126.94,68.63L126.93,68.62L126.77,68.39L126.73,68.15L126.78,68.03" />
        <path d="M127.19,67.62L127.03,67.70L126.88,67.85" />
        <path d="M127.18,68.33L126.88,68.54" />
        <path d="M127.73,69.00L127.49,68.94L127.22,68.83" />
        <path d="M126.83,67.79L126.95,67.93" />
        <path d="M127.18,68.81L127.19,68.82" />
        <path d="M126.78,68.41L126.80,68.43" />
        <path d="M126.68,67.92L126.83,68.09" />
        <path d="M126.77,68.22L126.77,68.23" />
        <path d="M126.82,67.77L126.83,67.80" />
        <path d="M127.05,67.82L127.05,67.83" />
        <path d="M126.94,68.63L127.05,68.71" />
        <path d="M126.82,68.79L126.81,68.80" />
        <path d="M126.97,68.59L126.94,68.63" />
        <path d="M127.23,68.43L126.97,68.59" />
        <path d="M126.84,67.41L127.39,67.70L128.16,67.83L128.62,67.81L129.07,67.73L129.49,67.58L129.60,67.53" />
        <path d="M126.89,67.13L126.89,67.14" />
        <path d="M127.05,66.99L127.19,66.90L127.54,66.76L127.96,66.69L128.55,66.69L129.13,66.82L129.69,67.09L129.69,67.09" />
        <path d="M126.61,66.54L126.64,66.69L126.68,66.86L127.13,67.26L127.86,67.52L128.56,67.57L128.99,67.51L129.47,67.40L129.26,67.47L128.99,67.51L128.47,67.55L127.71,67.45L127.27,67.29L126.92,67.07L126.70,66.80L126.60,66.51L126.68,66.14L126.94,65.85L127.15,65.71L127.19,65.70L127.20,65.69L127.20,65.69L127.15,65.74L126.83,66.07L126.74,66.51L126.85,66.79L126.96,66.90" />
        <path d="M127.24,67.12L127.10,67.04L127.03,66.97L127.10,67.04L127.08,67.02" />
        <path d="M126.84,67.29L127.09,67.45L127.40,67.60L127.76,67.68L128.16,67.75" />
        <path d="M127.97,67.63L127.80,67.61L127.47,67.53L127.18,67.40" />
        <path d="M126.97,67.25L126.96,67.25L126.94,67.21" />
        <path d="M126.82,66.72L126.85,66.75" />
        <path d="M126.62,66.66L126.64,66.79L126.68,66.86L126.88,67.12L126.94,67.21" />
        <path d="M126.74,66.51L126.78,66.41L126.83,66.67" />
        <path d="M126.82,67.38L126.70,67.22" />
        <path d="M126.81,67.38L126.80,67.41" />
        <path d="M126.77,67.60L126.76,67.58" />
        <path d="M126.88,66.57L126.87,66.58" />
        <path d="M126.88,67.12L126.98,67.18" />
        <path d="M127.03,66.97L126.99,66.93" />
        <path d="M127.10,67.04L127.15,67.06" />
        <path d="M126.92,67.68L126.92,67.68" />
        <path d="M127.20,67.03L127.19,67.03" />
        <path d="M127.10,67.58L127.11,67.58L127.32,67.68" />
        <path d="M126.81,66.54L127.11,66.24L127.41,66.10L127.78,66.00L128.18,65.97L128.60,65.99L129.31,66.18L129.86,66.52L130.04,66.72" />
        <path d="M126.93,66.05L126.80,66.36L127.03,65.99L126.98,66.08" />
        <path d="M126.80,66.36L126.78,66.41L126.79,66.40" />
        <path d="M126.83,66.07L127.24,65.74" />
        <path d="M126.60,66.50L126.60,66.33" />
        <path d="M127.03,65.99L127.24,65.87" />
        <path d="M127.18,65.69L127.01,65.80" />
        <path d="M126.78,66.41L126.78,66.41" />
        <path d="M129.86,65.99L129.73,65.87L129.08,65.61L128.30,65.55L127.57,65.68L127.25,65.86" />
        <path d="M127.12,66.36L127.12,66.37" />
        <path d="M128.11,69.05L128.22,69.06L128.30,69.06" />
        <path d="M127.89,69.74L128.21,69.77L128.47,69.76" />
        <path d="M129.21,68.21L129.10,68.17L128.45,68.09L127.82,68.16L127.56,68.26" />
        <path d="M127.99,68.34L127.99,68.34" />
        <path d="M127.59,68.27L127.32,68.17" />
        <path d="M127.82,68.16L128.10,68.15" />
        <path d="M127.57,67.47L127.43,67.51" />
        <path d="M128.02,67.39L128.18,67.38L128.63,67.42" />
        <path d="M128.27,66.80L127.95,66.80" />
        <path d="M128.55,66.60L128.22,66.61" />
        <path d="M127.45,67.52L127.34,67.46" />
        <path d="M127.44,67.43L127.81,67.54" />
        <path d="M127.59,67.56L127.66,67.57" />
        <path d="M128.85,67.41L128.92,67.40L128.88,67.41L128.39,67.44L127.90,67.38L127.78,67.34" />
        <path d="M128.14,67.30L128.15,67.30" />
        <path d="M128.52,67.30L128.24,67.30" />
        <path d="M128.16,65.89L128.14,65.89" />
        <path d="M128.29,66.09L128.18,66.08" />
        <path d="M128.24,65.89L128.60,65.90" />
        <path d="M128.99,69.69L129.31,69.59" />
        <path d="M129.35,69.58L129.34,69.58" />
        <path d="M129.48,68.32L129.74,68.42L129.87,68.56" />
        <path d="M129.35,68.31L129.77,68.10L130.02,67.97" />
        <path d="M128.84,68.31L128.84,68.31" />
        <path d="M129.49,68.81L129.48,68.81" />
        <path d="M129.49,67.74L129.50,67.75" />
        <path d="M129.16,68.22L129.29,68.19" />
        <path d="M129.46,68.33L129.71,68.21" />
        <path d="M129.28,68.19L129.44,68.12" />
        <path d="M129.41,67.64L129.48,67.67L129.80,67.91" />
        <path d="M129.10,67.53L129.11,67.54" />
        <path d="M129.47,67.40L129.64,67.32" />
        <path d="M129.67,67.16L129.33,67.31L129.29,67.32" />
        <path d="M129.63,67.36L129.42,67.46L129.17,67.52L129.02,67.57L129.02,67.57" />
        <path d="M129.17,67.52L128.95,67.57" />
        <path d="M129.18,66.71L129.17,66.71" />
        <path d="M128.55,66.79L128.57,66.80" />
        <path d="M128.60,66.80L129.13,66.90" />
        <path d="M129.30,67.68L129.47,67.63L129.58,67.57" />
        <path d="M128.97,67.58L129.02,67.57" />
        <path d="M128.92,67.40L129.02,67.38" />
        <path d="M129.31,66.18L129.86,66.54" />
        <path d="M129.36,66.28L129.31,66.25L129.17,66.21" />
        <path d="M129.36,66.07L129.37,66.07L129.09,65.99" />
        <path d="M128.85,66.14L128.60,66.07" />
        <path d="M129.77,69.36L129.75,69.36" />
        <path d="M129.72,69.82L129.71,69.83" />
        <path d="M129.71,69.83L129.70,69.83" />
        <path d="M130.09,69.02L130.05,69.09" />
        <path d="M130.05,69.09L129.98,69.15" />
        <path d="M130.21,69.67L129.83,69.98" />
        <path d="M130.05,69.55L130.00,69.59" />
        <path d="M130.20,68.79L130.15,68.89" />
        <path d="M130.22,69.22L130.20,69.26" />
        <path d="M130.37,68.89L130.35,68.94L130.21,69.21L130.20,69.22" />
        <path d="M130.39,69.22L130.38,69.03" />
        <path d="M130.17,68.85L130.19,68.59" />
        <path d="M130.04,68.72L130.14,68.82L130.15,68.88" />
        <path d="M130.18,67.81L130.22,67.93L130.22,67.92" />
        <path d="M130.09,68.27L129.96,68.03" />
        <path d="M129.67,68.01L129.67,68.01" />
        <path d="M129.83,68.61L129.81,68.62" />
        <path d="M130.06,68.37L130.06,68.38" />
        <path d="M130.18,67.82L130.27,67.70" />
        <path d="M130.34,67.71L130.38,67.88" />
        <path d="M130.22,67.93L130.22,67.94" />
        <path d="M130.30,68.27L130.22,68.49L130.20,68.51" />
        <path d="M130.09,68.28L130.18,68.05" />
        <path d="M129.93,68.05L130.09,67.93L130.10,67.93" />
        <path d="M130.17,68.07L130.09,67.93" />
        <path d="M130.33,68.39L130.29,68.30" />
        <path d="M130.09,68.28L129.96,68.05" />
        <path d="M130.01,68.69L130.16,68.55" />
        <path d="M129.94,67.80L129.76,67.93" />
        <path d="M129.97,68.08L129.98,68.08" />
        <path d="M129.87,68.56L130.01,68.42" />
        <path d="M130.36,66.79L130.42,66.64" />
        <path d="M130.20,66.64L130.18,66.75" />
        <path d="M129.87,66.56L129.93,66.63" />
        <path d="M129.97,66.10L130.14,66.26L130.22,66.54L130.22,66.55" />
        <path d="M130.31,66.19L130.34,66.29" />
        <path d="M130.01,65.85L130.17,66.03" />
      </g>
      <g style="stroke:#000000;stroke-width:0.265">
        <path d="M126.69,68.63L126.64,68.70L126.62,68.72L126.57,69.03L126.58,69.06L126.59,69.09L126.57,69.19L126.58,69.33L126.69,69.59L126.81,69.76L127.01,69.93L127.12,70.00L127.53,70.18L128.01,70.29L128.52,70.33L128.69,70.32L129.14,70.25L129.30,70.21L129.56,70.11L129.82,69.99L130.19,69.69L130.21,69.67L130.40,69.31L130.40,69.28L130.38,69.03L130.37,68.89" />
        <path d="M126.91,68.85L126.87,68.92L126.80,69.10L126.84,69.22L127.21,69.53L127.24,69.55L127.73,69.71L127.84,69.73L127.89,69.74L128.47,69.76L128.60,69.75L129.31,69.59L129.34,69.58L129.75,69.36L129.98,69.15L130.09,69.02L130.15,68.89" />
        <path d="M130.20,69.22L129.86,69.53L129.40,69.77L129.02,69.89L128.61,69.95L128.20,69.96L127.80,69.93L127.44,69.84L127.11,69.70L126.92,69.57L127.08,69.72L127.15,69.79L127.56,69.99L128.10,70.11L128.67,70.12L129.23,70.03L129.70,69.83L129.72,69.82L130.00,69.59L130.20,69.26L130.20,69.22" />
        <path d="M130.01,68.69L129.93,68.78L129.56,69.00L129.11,69.16L128.64,69.24L128.21,69.26L127.80,69.22L127.43,69.13L127.09,68.99L126.91,68.85" />
        <path d="M127.10,68.28L126.83,68.45L126.82,68.46" />
        <path d="M126.88,68.54L126.88,68.55" />
        <path d="M129.87,68.56L129.81,68.62L129.48,68.81L129.08,68.96L128.62,69.05L128.30,69.06L128.11,69.05L127.83,69.03L127.73,69.00L127.22,68.83L127.19,68.82L127.05,68.71" />
        <path d="M127.32,68.17L127.27,68.15L127.00,67.98L126.95,67.93" />
        <path d="M126.69,68.63L126.62,68.51L126.61,68.48L126.57,68.22L126.58,68.18L126.68,67.93L126.68,67.92" />
        <path d="M126.83,68.09L126.88,68.14L127.10,68.28" />
        <path d="M126.70,67.22L126.62,67.34L126.57,67.62L126.58,67.65L126.66,67.90L126.68,67.92" />
        <path d="M127.10,67.58L126.93,67.67L126.92,67.68L126.82,67.77" />
        <path d="M127.32,68.38L127.25,68.41L127.23,68.43L127.26,68.46L127.27,68.53L127.05,68.71" />
        <path d="M126.82,68.46L126.80,68.43L126.77,68.23L126.83,68.09" />
        <path d="M126.82,67.38L126.80,67.41L126.77,67.60L126.82,67.77" />
        <path d="M126.95,67.93L127.05,67.83L127.32,67.68" />
        <path d="M127.34,67.46L126.97,67.25L126.94,67.21" />
        <path d="M126.70,67.22L126.62,67.12L126.61,67.08L126.57,66.80L126.58,66.76L126.62,66.66L126.61,66.54L126.58,66.38L126.60,66.33L126.68,66.14L126.77,65.99L126.94,65.85L127.01,65.80L127.14,65.69L127.67,65.49L128.28,65.40L128.93,65.43L129.53,65.58L130.01,65.85L130.14,66.00L130.17,66.03L130.31,66.19L130.33,66.23L130.34,66.29L130.40,66.49L130.42,66.64L130.37,66.79" />
        <path d="M126.82,67.38L126.84,67.41L127.10,67.58" />
        <path d="M129.72,66.94L129.49,66.83L129.18,66.71L128.55,66.60L128.22,66.61L127.91,66.61L127.47,66.70L127.09,66.86L127.08,66.87L126.99,66.93" />
        <path d="M126.83,66.67L126.87,66.58L127.12,66.37L127.41,66.23L127.77,66.13L128.17,66.08L128.29,66.09L128.60,66.10L128.85,66.14L129.17,66.21L129.32,66.26L129.36,66.28L129.88,66.58L130.00,66.72" />
        <path d="M126.98,67.18L126.94,67.21" />
        <path d="M127.15,67.06L127.19,67.03L127.53,66.89L127.94,66.81L128.27,66.80L128.55,66.80L129.13,66.90L129.68,67.14" />
        <path d="M127.44,67.43L127.31,67.39L126.98,67.18" />
        <path d="M126.83,66.67L126.85,66.75L126.96,66.90L126.99,66.93" />
        <path d="M127.78,67.34L127.46,67.24L127.24,67.12L127.15,67.06" />
        <path d="M130.20,66.64L130.00,66.42L129.70,66.22L129.38,66.07L129.09,65.99L129.00,65.96L128.60,65.90L128.16,65.89L127.73,65.94L127.33,66.04L127.01,66.20L126.99,66.21L126.79,66.40" />
        <path d="M130.20,66.64L130.22,66.55L130.14,66.29L129.97,66.10L129.86,65.99L129.45,65.76L128.90,65.62L128.30,65.59L127.73,65.67L127.25,65.86L127.24,65.87L126.98,66.08L126.79,66.40" />
        <path d="M129.44,68.12L129.16,68.02L128.63,67.94L128.10,67.96L127.59,68.06L127.32,68.17" />
        <path d="M127.59,68.27L127.61,68.27L127.99,68.34" />
        <path d="M129.16,68.22L128.84,68.31L128.41,68.35L127.99,68.34" />
        <path d="M129.16,68.22L129.10,68.20L128.61,68.14L128.10,68.15L127.65,68.24L127.59,68.27" />
        <path d="M129.46,68.33L129.34,68.38L128.86,68.51L128.41,68.55L127.96,68.54L127.55,68.46L127.32,68.38" />
        <path d="M127.32,67.68L127.41,67.72L127.77,67.81L128.16,67.85L128.61,67.83L129.06,67.76L129.30,67.68" />
        <path d="M129.02,67.38L128.89,67.35L128.52,67.30L128.15,67.30L127.78,67.34" />
        <path d="M128.97,67.58L128.60,67.64L128.18,67.65L127.97,67.63L127.66,67.57" />
        <path d="M127.44,67.43L127.34,67.46" />
        <path d="M127.66,67.57L127.73,67.55L127.81,67.54" />
        <path d="M127.81,67.54L127.86,67.56L127.88,67.56L128.39,67.61L128.92,67.58L128.95,67.57" />
        <path d="M129.76,67.93L129.67,68.01L129.44,68.12" />
        <path d="M129.76,67.93L129.50,67.75L129.30,67.68" />
        <path d="M129.46,68.33L129.61,68.38L129.87,68.56" />
        <path d="M128.95,67.57L128.97,67.58" />
        <path d="M128.55,66.79L128.60,66.80" />
        <path d="M129.67,67.16L129.29,67.32L129.02,67.38" />
        <path d="M128.60,65.90L128.60,65.90" />
        <path d="M130.37,68.89L130.39,68.86L130.39,68.73L130.40,68.46L130.39,68.43L130.30,68.27" />
        <path d="M130.15,68.89L130.15,68.88L130.04,68.72L130.01,68.69" />
        <path d="M130.20,68.51L130.19,68.59" />
        <path d="M129.94,67.80L129.86,67.73L129.58,67.57" />
        <path d="M130.01,68.42L130.06,68.38L130.09,68.28" />
        <path d="M130.18,68.05L130.22,67.94L130.18,67.82" />
        <path d="M130.18,68.05L130.13,67.96L130.11,67.94L130.10,67.93" />
        <path d="M130.30,68.27L130.41,67.98L130.42,67.94L130.41,67.91L130.35,67.71" />
        <path d="M130.06,67.65L129.96,67.78L129.94,67.80" />
        <path d="M129.71,68.21L129.76,68.19L129.93,68.05" />
        <path d="M130.18,67.82L130.11,67.91L130.10,67.93" />
        <path d="M130.20,68.51L130.16,68.55" />
        <path d="M130.09,68.28L129.98,68.08L129.93,68.05" />
        <path d="M130.16,68.55L130.19,68.59" />
        <path d="M129.71,68.21L130.01,68.42" />
        <path d="M129.60,67.56L129.58,67.57" />
      </g>
    </g>
    <g id="PMI1.0">
      <g>
        <path style="stroke:#ffffff;stroke-width:0.600;stroke-opacity:0.50" d="M158.22,113.04L131.06,88.12" />
        <path style="stroke:#000000;stroke-width:0.100;stroke-opacity:0.98" d="M158.22,113.04L131.06,88.12" />
      </g>
      <g />
      <g>
        <text xml:space="preserve" fill="#000000" stroke-width="0" x="158.92" y="115.51" font-size="2.78" opacity="1.00" font-family="Arial Narrow">1</text>
      </g>
    </g>
    <g id="PMI4.0">
      <g>
        <path style="stroke:#ffffff;stroke-width:0.600;stroke-opacity:0.50" d="M154.02,72.24L129.68,67.11" />
        <path style="stroke:#000000;stroke-width:0.100;stroke-opacity:0.98" d="M154.02,72.24L129.68,67.11" />
      </g>
      <g />
      <g>
        <text xml:space="preserve" fill="#000000" stroke-width="0" x="154.72" y="73.78" font-size="3.37" opacity="1.00" font-family="Arial Narrow">4</text>
      </g>
    </g>
    <g>
      <g>
        <path style="stroke:#000000;stroke-width:0.100;stroke-dasharray:3.6 2.4 1.2 2.4" d="M128.49,72.41L128.49,70.32" />
        <path style="stroke:#000000;stroke-width:0.100;stroke-dasharray:3.6 2.4 1.2 2.4" d="M128.49,69.95L128.49,70.12" />
        <path style="stroke:#000000;stroke-width:0.100;stroke-dasharray:3.6 2.4 1.2 2.4" d="M128.49,69.25L128.49,69.76" />
        <path style="stroke:#000000;stroke-width:0.100;stroke-dasharray:3.6 2.4 1.2 2.4" d="M128.49,68.54L128.49,69.05" />
        <path style="stroke:#000000;stroke-width:0.100;stroke-dasharray:3.6 2.4 1.2 2.4" d="M128.49,67.84L128.49,68.35" />
        <path style="stroke:#000000;stroke-width:0.100;stroke-dasharray:3.6 2.4 1.2 2.4" d="M128.49,67.60L128.49,67.64" />
        <path style="stroke:#000000;stroke-width:0.100;stroke-dasharray:3.6 2.4 1.2 2.4" d="M128.49,56.65L128.49,67.43" />
        <path style="stroke:#000000;stroke-width:0.100;stroke-dasharray:3.6 2.4 1.2 2.4" d="M128.49,47.92L128.49,52.09" />
      </g>
    </g>
    <g id="PMI2.0">
      <g>
        <path style="stroke:#ffffff;stroke-width:0.600;stroke-opacity:0.50" d="M147.15,51.23L129.53,52.63" />
        <path style="stroke:#000000;stroke-width:0.100;stroke-opacity:0.98" d="M147.15,51.23L129.53,52.63" />
      </g>
      <g />
      <g>
        <text xml:space="preserve" fill="#000000" stroke-width="0" x="147.85" y="52.35" font-size="3.27" opacity="1.00" font-family="Arial Narrow">2</text>
      </g>
    </g>
    <g id="PMI3.0">
      <g>
        <path style="stroke:#ffffff;stroke-width:0.600;stroke-opacity:0.50" d="M114.33,38.15L127.19,41.83" />
        <path style="stroke:#000000;stroke-width:0.100;stroke-opacity:0.98" d="M114.33,38.15L127.19,41.83" />
      </g>
      <g />
      <g>
        <text xml:space="preserve" fill="#000000" stroke-width="0" x="112.16" y="38.97" font-size="3.20" opacity="1.00" font-family="Arial Narrow">3</text>
      </g>
    </g>
    <g>
      <g />
      <g>
        <path style="fill:#ffffff;fill-rule:evenodd" d="M0.00,0.14L0.00,210.00L296.85,210.00L296.85,0.14L0.00,0.14zM4.97,15.11L291.86,15.11L291.86,194.80L4.97,194.80L4.97,15.11z" />
        <path style="stroke:#000000;stroke-width:0.128;stroke-dasharray:" d="M12.69,13.31L284.91,13.31" />
        <path style="fill:#ee2922" d="M30.08,9.12L33.20,9.12L33.20,9.12L33.23,9.12L33.26,9.11L33.29,9.11L33.31,9.10L33.34,9.08L33.36,9.07L33.38,9.05L33.40,9.03L33.42,9.01L33.44,8.98L33.45,8.96L33.46,8.93L33.47,8.91L33.47,8.88L33.47,8.85L33.47,5.72L30.35,5.72L30.35,5.72L30.32,5.72L30.29,5.73L30.26,5.74L30.24,5.75L30.21,5.76L30.19,5.77L30.17,5.79L30.15,5.81L30.13,5.83L30.11,5.86L30.10,5.88L30.09,5.91L30.08,5.94L30.08,5.97L30.08,5.99L30.08,9.12z" />
        <path style="fill:#231f20;fill-rule:evenodd" d="M41.21,7.62L41.21,7.62L41.21,7.71L41.22,7.80L41.22,7.88L41.24,7.95L41.25,8.01L41.27,8.07L41.30,8.12L41.33,8.17L41.37,8.20L41.41,8.23L41.46,8.26L41.52,8.28L41.58,8.29L41.66,8.30L41.74,8.30L42.84,8.30L42.84,8.30L42.92,8.30L43.00,8.29L43.06,8.28L43.12,8.26L43.17,8.23L43.22,8.20L43.25,8.17L43.28,8.12L43.31,8.07L43.33,8.01L43.35,7.95L43.36,7.88L43.36,7.80L43.37,7.71L43.37,7.62L43.37,7.22L43.37,7.22L43.37,7.14L43.36,7.06L43.36,6.99L43.34,6.92L43.33,6.86L43.31,6.80L43.28,6.75L43.25,6.70L43.20,6.66L43.16,6.62L43.10,6.59L43.04,6.57L42.96,6.55L42.88,6.54L42.79,6.54L41.79,6.54L41.79,6.54L41.70,6.54L41.62,6.55L41.54,6.57L41.48,6.59L41.42,6.62L41.38,6.66L41.34,6.70L41.30,6.75L41.27,6.80L41.25,6.86L41.24,6.92L41.22,6.99L41.22,7.06L41.21,7.14L41.21,7.22L41.21,7.62zM40.28,6.92L40.28,6.92L40.29,6.73L40.31,6.56L40.34,6.41L40.39,6.27L40.44,6.15L40.51,6.05L40.59,5.97L40.68,5.89L40.79,5.83L40.90,5.78L41.02,5.74L41.16,5.72L41.30,5.70L41.45,5.69L41.62,5.68L42.96,5.68L42.96,5.68L43.13,5.69L43.28,5.70L43.42,5.72L43.56,5.74L43.68,5.78L43.80,5.83L43.90,5.89L43.99,5.97L44.07,6.05L44.14,6.15L44.20,6.27L44.24,6.41L44.27,6.56L44.29,6.73L44.30,6.92L44.30,7.92L44.30,7.92L44.29,8.11L44.27,8.28L44.24,8.44L44.20,8.57L44.14,8.69L44.07,8.79L43.99,8.88L43.90,8.95L43.80,9.01L43.68,9.06L43.56,9.10L43.42,9.12L43.28,9.14L43.13,9.15L42.96,9.16L41.62,9.16L41.62,9.16L41.45,9.15L41.30,9.14L41.16,9.12L41.02,9.10L40.90,9.06L40.79,9.01L40.68,8.95L40.59,8.88L40.51,8.79L40.44,8.69L40.39,8.57L40.34,8.44L40.31,8.28L40.29,8.11L40.28,7.92L40.28,6.92z" />
        <path style="fill:#231f20" d="M52.74,6.69L52.74,6.69L52.74,6.57L52.73,6.46L52.72,6.36L52.70,6.26L52.68,6.16L52.64,6.08L52.59,6.00L52.52,5.93L52.46,5.87L52.36,5.81L52.25,5.77L52.11,5.73L51.96,5.71L51.78,5.69L51.58,5.68L50.28,5.68L50.28,5.68L50.06,5.69L49.87,5.71L49.71,5.74L49.56,5.78L49.44,5.83L49.35,5.89L49.27,5.96L49.20,6.04L49.15,6.13L49.12,6.22L49.09,6.32L49.08,6.43L49.07,6.54L49.06,6.65L49.06,6.78L49.06,6.78L49.06,6.94L49.07,7.08L49.09,7.20L49.11,7.32L49.15,7.40L49.21,7.49L49.27,7.56L49.36,7.62L49.47,7.67L49.59,7.71L49.74,7.74L49.92,7.77L50.12,7.78L50.35,7.79L50.62,7.79L50.62,7.79L50.84,7.79L51.04,7.79L51.21,7.80L51.36,7.80L51.49,7.81L51.59,7.82L51.68,7.83L51.75,7.85L51.81,7.87L51.85,7.89L51.88,7.92L51.90,7.96L51.92,8.00L51.92,8.05L51.92,8.11L51.92,8.11L51.92,8.16L51.91,8.20L51.90,8.24L51.88,8.27L51.86,8.30L51.84,8.32L51.81,8.34L51.78,8.36L51.75,8.37L51.72,8.38L51.68,8.39L51.64,8.39L51.60,8.39L51.57,8.39L51.53,8.39L50.39,8.39L50.39,8.39L50.34,8.39L50.29,8.39L50.25,8.39L50.21,8.38L50.18,8.38L50.15,8.37L50.12,8.35L50.09,8.34L50.07,8.32L50.05,8.29L50.03,8.26L50.01,8.22L50.00,8.18L49.99,8.13L49.99,8.08L49.06,8.08L49.06,8.24L49.06,8.24L49.06,8.38L49.07,8.51L49.10,8.62L49.13,8.72L49.18,8.81L49.23,8.88L49.29,8.95L49.37,9.00L49.46,9.05L49.56,9.08L49.67,9.11L49.79,9.13L49.93,9.15L50.08,9.15L50.24,9.16L51.37,9.16L51.37,9.16L51.60,9.15L51.81,9.15L52.00,9.13L52.16,9.11L52.31,9.08L52.43,9.05L52.53,9.00L52.62,8.93L52.69,8.86L52.75,8.77L52.80,8.67L52.83,8.55L52.85,8.42L52.86,8.26L52.87,8.09L52.87,8.09L52.86,7.90L52.85,7.74L52.82,7.59L52.78,7.47L52.73,7.37L52.66,7.29L52.57,7.21L52.47,7.15L52.35,7.11L52.20,7.07L52.03,7.04L51.84,7.03L51.62,7.02L51.37,7.01L51.10,7.01L51.10,7.01L50.91,7.01L50.75,7.01L50.60,7.01L50.48,7.01L50.37,7.00L50.28,6.99L50.20,6.98L50.14,6.97L50.09,6.95L50.06,6.92L50.03,6.89L50.01,6.86L50.00,6.81L49.99,6.77L49.99,6.71L49.99,6.71L49.99,6.67L50.00,6.64L50.01,6.61L50.02,6.59L50.03,6.56L50.05,6.54L50.07,6.52L50.10,6.50L50.13,6.49L50.16,6.47L50.19,6.46L50.22,6.46L50.26,6.45L50.30,6.45L50.34,6.45L51.37,6.45L51.37,6.45L51.44,6.45L51.51,6.45L51.56,6.46L51.61,6.46L51.65,6.47L51.69,6.49L51.72,6.50L51.75,6.52L51.77,6.54L51.78,6.56L51.80,6.59L51.81,6.62L51.81,6.65L51.82,6.68L51.82,6.72L52.74,6.72L52.74,6.69z" />
        <path style="fill:#231f20" d="M56.56,5.72L56.56,6.54L55.25,6.54L55.25,9.12L54.32,9.12L54.32,6.54L53.02,6.54L53.02,5.99L53.02,5.99L53.02,5.97L53.02,5.94L53.03,5.91L53.04,5.88L53.05,5.86L53.07,5.83L53.09,5.81L53.11,5.79L53.13,5.77L53.15,5.76L53.18,5.75L53.20,5.74L53.23,5.73L53.26,5.72L53.29,5.72L56.56,5.72z" />
        <path style="fill:#231f20;fill-rule:evenodd" d="M47.38,8.30L45.72,8.30L45.72,7.77L47.38,7.77L47.38,7.77L47.42,7.77L47.46,7.77L47.50,7.78L47.53,7.78L47.56,7.79L47.59,7.80L47.61,7.82L47.64,7.83L47.66,7.85L47.68,7.88L47.69,7.90L47.70,7.93L47.71,7.97L47.72,8.01L47.72,8.05L47.72,8.05L47.72,8.09L47.71,8.12L47.70,8.15L47.69,8.18L47.68,8.20L47.66,8.22L47.64,8.24L47.61,8.26L47.59,8.27L47.56,8.28L47.53,8.29L47.50,8.29L47.46,8.30L47.42,8.30L47.38,8.30zM45.72,6.54L47.36,6.54L47.36,6.54L47.40,6.54L47.43,6.54L47.46,6.55L47.48,6.56L47.51,6.57L47.53,6.58L47.55,6.59L47.57,6.61L47.59,6.63L47.60,6.65L47.61,6.68L47.62,6.71L47.63,6.74L47.63,6.77L47.63,6.81L47.63,6.81L47.63,6.85L47.63,6.88L47.62,6.91L47.61,6.94L47.60,6.96L47.59,6.99L47.57,7.00L47.55,7.02L47.53,7.04L47.51,7.05L47.48,7.06L47.46,7.06L47.43,7.07L47.40,7.07L47.36,7.07L45.72,7.07L45.72,6.54zM48.12,7.40L48.12,7.39L48.12,7.39L48.17,7.37L48.22,7.36L48.26,7.34L48.31,7.32L48.35,7.29L48.39,7.25L48.42,7.22L48.45,7.17L48.48,7.12L48.51,7.06L48.53,6.99L48.54,6.91L48.55,6.83L48.56,6.73L48.56,6.62L48.56,6.62L48.56,6.49L48.55,6.37L48.52,6.27L48.49,6.17L48.44,6.09L48.39,6.01L48.33,5.95L48.25,5.89L48.17,5.84L48.08,5.81L47.98,5.77L47.86,5.75L47.74,5.73L47.61,5.72L47.46,5.72L45.06,5.72L45.06,5.72L45.03,5.72L45.00,5.73L44.98,5.74L44.95,5.75L44.92,5.76L44.90,5.77L44.88,5.79L44.86,5.81L44.84,5.83L44.83,5.86L44.81,5.88L44.80,5.91L44.80,5.94L44.79,5.96L44.79,5.99L44.79,9.12L47.75,9.12L47.75,9.12L47.85,9.12L47.95,9.11L48.05,9.10L48.14,9.08L48.22,9.05L48.30,9.02L48.38,8.97L48.44,8.92L48.50,8.86L48.55,8.78L48.59,8.70L48.63,8.60L48.65,8.48L48.67,8.36L48.67,8.22L48.67,8.22L48.67,8.12L48.66,8.02L48.65,7.94L48.64,7.86L48.62,7.79L48.59,7.72L48.56,7.66L48.53,7.61L48.49,7.56L48.44,7.52L48.39,7.49L48.33,7.46L48.27,7.43L48.19,7.42L48.12,7.40z" />
        <path style="fill:#231f20;fill-rule:evenodd" d="M38.63,8.30L36.96,8.30L36.96,7.77L38.63,7.77L38.63,7.77L38.66,7.77L38.70,7.77L38.74,7.78L38.77,7.78L38.80,7.79L38.83,7.80L38.86,7.82L38.88,7.83L38.90,7.85L38.92,7.88L38.93,7.90L38.94,7.93L38.95,7.97L38.96,8.01L38.96,8.05L38.96,8.05L38.96,8.09L38.95,8.12L38.94,8.15L38.93,8.18L38.92,8.20L38.90,8.22L38.88,8.24L38.86,8.26L38.83,8.27L38.80,8.28L38.77,8.29L38.74,8.29L38.70,8.30L38.66,8.30L38.63,8.30zM36.96,6.54L38.60,6.54L38.60,6.54L38.64,6.54L38.67,6.54L38.70,6.55L38.73,6.56L38.75,6.57L38.77,6.58L38.80,6.59L38.81,6.61L38.83,6.63L38.84,6.65L38.86,6.68L38.86,6.71L38.87,6.74L38.88,6.77L38.88,6.81L38.88,6.81L38.88,6.85L38.87,6.88L38.86,6.91L38.86,6.94L38.84,6.96L38.83,6.99L38.81,7.00L38.80,7.02L38.77,7.04L38.75,7.05L38.73,7.06L38.70,7.06L38.67,7.07L38.64,7.07L38.60,7.07L36.96,7.07L36.96,6.54zM39.36,7.40L39.36,7.39L39.36,7.39L39.41,7.37L39.46,7.36L39.50,7.34L39.55,7.32L39.59,7.29L39.63,7.25L39.66,7.22L39.69,7.17L39.72,7.12L39.75,7.06L39.77,6.99L39.78,6.91L39.80,6.83L39.80,6.73L39.81,6.62L39.81,6.62L39.80,6.49L39.79,6.37L39.76,6.27L39.73,6.17L39.69,6.09L39.63,6.01L39.57,5.95L39.50,5.89L39.41,5.84L39.32,5.81L39.22,5.77L39.10,5.75L38.98,5.73L38.85,5.72L38.70,5.72L36.30,5.72L36.30,5.72L36.27,5.72L36.24,5.73L36.22,5.74L36.19,5.75L36.17,5.76L36.14,5.77L36.12,5.79L36.10,5.81L36.08,5.83L36.07,5.86L36.05,5.88L36.04,5.91L36.04,5.94L36.03,5.96L36.03,5.99L36.03,9.12L38.99,9.12L38.99,9.12L39.09,9.12L39.19,9.11L39.29,9.10L39.38,9.08L39.47,9.05L39.55,9.02L39.62,8.97L39.68,8.92L39.74,8.86L39.79,8.78L39.84,8.70L39.87,8.60L39.89,8.48L39.91,8.36L39.91,8.22L39.91,8.22L39.91,8.12L39.91,8.02L39.90,7.94L39.88,7.86L39.86,7.79L39.84,7.72L39.81,7.66L39.77,7.61L39.73,7.56L39.68,7.52L39.63,7.49L39.57,7.46L39.51,7.43L39.44,7.42L39.36,7.40z" />
        <path style="stroke:#000000;stroke-width:0.128;stroke-dasharray:" d="M12.69,196.81L284.91,196.81" />
        <path style="stroke:#000000;stroke-width:0.071;stroke-opacity:0.00;stroke-dasharray:" d="M0.14,0.00L0.14,209.83" />
        <path style="stroke:#000000;stroke-width:0.071;stroke-opacity:0.00;stroke-dasharray:" d="M296.72,0.00L296.72,209.83" />
        <path style="stroke:#000000;stroke-width:0.071;stroke-opacity:0.00" d="M0.14,209.83L297.00,209.83" />
        <path style="stroke:#000000;stroke-width:0.071;stroke-opacity:0.00" d="M0.14,0.28L297.00,0.28" />
        <path style="stroke:#000000;stroke-width:0.071;stroke-opacity:0.00" d="M0.14,209.83L297.00,209.83" />
      </g>
    </g>
    <g>
      <g />
      <g>
        <path style="fill:#ffffff" d="M155.00,198.00L156.98,198.00L156.98,202.51L155.00,202.51z" />
        <text xml:space="preserve" fill="#000000" stroke-width="0" x="155.56" y="201.10" font-size="2.54" opacity="1.00" font-family="Arial">-</text>
      </g>
    </g>
    <g>
      <g />
      <g>
        <text xml:space="preserve" fill="#000000" stroke-width="0" x="30.56" y="201.10" font-size="2.79" opacity="1.00" font-family="Arial">TIGE SUPPORT L 350</text>
      </g>
    </g>
    <g>
      <g />
      <g>
        <path style="fill:#ffffff" d="M170.00,198.00L174.72,198.00L174.72,202.51L170.00,202.51z" />
        <text xml:space="preserve" fill="#000000" stroke-width="0" x="170.56" y="201.10" font-size="2.59" opacity="1.00" font-family="Arial">1/1</text>
      </g>
    </g>
    <g>
      <g />
      <g>
        <path style="fill:#ffffff" d="M120.00,198.00L149.32,198.00L149.32,202.51L120.00,202.51z" />
        <text xml:space="preserve" fill="#000000" stroke-width="0" x="120.56" y="201.10" font-size="2.79" opacity="1.00" font-family="Arial">BSA00270000BS_E43</text>
      </g>
    </g>
    <g>
      <g />
      <g>
        <text xml:space="preserve" fill="#000000" stroke-width="0" x="30.56" y="204.60" font-size="2.79" opacity="1.00" font-family="Arial">SUPPORTING ROD</text>
      </g>
    </g>
    <g />
    <g />
    <g id="paperID" visibility="hidden" opacity="0.00" transform="scale(0.000100)">
      <path style="stroke:#000000;stroke-width:0.500;fill:#e6e6e6;fill-rule:evenodd" d="M-2000.00,-2000.00L2297.00,-2000.00L2297.00,2210.00L-2000.00,2210.00zM0.00,0.00L297.00,0.00L297.00,210.00L0.00,210.00z" />
      <path style="fill:#000000;fill-opacity:0.118" d="M3.00,210.00L297.00,210.00L297.00,3.00L300.00,3.00L300.00,213.00L3.00,213.00z" />
    </g>
    <g>
      <g>
        <path style="stroke:#000000;stroke-width:0.353;fill:#f0f0ff" d="M103.02,235.16L146.00,235.16L146.00,238.83L103.02,238.83z" />
        <text xml:space="preserve" fill="#000000" stroke-width="0" x="104.43" y="237.98" font-size="2.64" opacity="1.00" font-family="MS Shell Dlg" font-weight="bold">Description</text>
        <text xml:space="preserve" fill="#000000" stroke-width="0" x="127.97" y="237.98" font-size="2.65" opacity="1.00" font-family="MS Shell Dlg" font-weight="bold">BOM ID</text>
        <text xml:space="preserve" fill="#000000" stroke-width="0" x="140.40" y="237.98" font-size="2.62" opacity="1.00" font-family="MS Shell Dlg" font-weight="bold">Qty</text>
        <path style="stroke:#000000;stroke-width:0.353" d="M126.56,235.16L126.56,238.83" />
        <path style="stroke:#000000;stroke-width:0.353" d="M138.99,235.16L138.99,238.83" />
      </g>
      <g id="Line1">
        <path style="stroke:#000000;stroke-width:0.353;fill:#ffffff" d="M103.02,238.83L146.00,238.83L146.00,242.50L103.02,242.50z" />
        <text xml:space="preserve" fill="#000000" stroke-width="0" x="104.43" y="241.65" font-size="2.74" opacity="1.00" font-family="MS Shell Dlg">BSA00600000 N</text>
        <text xml:space="preserve" fill="#000000" stroke-width="0" x="127.97" y="241.65" font-size="2.22" opacity="1.00" font-family="MS Shell Dlg">1</text>
        <text xml:space="preserve" fill="#000000" stroke-width="0" x="140.40" y="241.65" font-size="2.22" opacity="1.00" font-family="MS Shell Dlg">1</text>
        <path style="stroke:#000000;stroke-width:0.353" d="M126.56,238.83L126.56,242.50" />
        <path style="stroke:#000000;stroke-width:0.353" d="M138.99,238.83L138.99,242.50" />
      </g>
      <g id="Line2">
        <path style="stroke:#000000;stroke-width:0.353;fill:#f0f0ff" d="M103.02,242.50L146.00,242.50L146.00,246.17L103.02,246.17z" />
        <text xml:space="preserve" fill="#000000" stroke-width="0" x="104.43" y="245.32" font-size="2.74" opacity="1.00" font-family="MS Shell Dlg">BSA0650202000</text>
        <text xml:space="preserve" fill="#000000" stroke-width="0" x="127.97" y="245.32" font-size="2.62" opacity="1.00" font-family="MS Shell Dlg">2</text>
        <text xml:space="preserve" fill="#000000" stroke-width="0" x="140.40" y="245.32" font-size="2.22" opacity="1.00" font-family="MS Shell Dlg">1</text>
        <path style="stroke:#000000;stroke-width:0.353" d="M126.56,242.50L126.56,246.17" />
        <path style="stroke:#000000;stroke-width:0.353" d="M138.99,242.50L138.99,246.17" />
      </g>
      <g>
        <path style="stroke:#000000;stroke-width:0.353;fill:#f0f0ff" d="M151.00,235.16L193.98,235.16L193.98,238.83L151.00,238.83z" />
        <text xml:space="preserve" fill="#000000" stroke-width="0" x="152.41" y="237.98" font-size="2.64" opacity="1.00" font-family="MS Shell Dlg" font-weight="bold">Description</text>
        <text xml:space="preserve" fill="#000000" stroke-width="0" x="175.95" y="237.98" font-size="2.65" opacity="1.00" font-family="MS Shell Dlg" font-weight="bold">BOM ID</text>
        <text xml:space="preserve" fill="#000000" stroke-width="0" x="188.38" y="237.98" font-size="2.62" opacity="1.00" font-family="MS Shell Dlg" font-weight="bold">Qty</text>
        <path style="stroke:#000000;stroke-width:0.353" d="M174.54,235.16L174.54,238.83" />
        <path style="stroke:#000000;stroke-width:0.353" d="M186.97,235.16L186.97,238.83" />
      </g>
      <g id="Line3">
        <path style="stroke:#000000;stroke-width:0.353;fill:#ffffff" d="M151.00,238.83L193.98,238.83L193.98,242.50L151.00,242.50z" />
        <text xml:space="preserve" fill="#000000" stroke-width="0" x="152.41" y="241.65" font-size="2.74" opacity="1.00" font-family="MS Shell Dlg">BSA1002108076</text>
        <text xml:space="preserve" fill="#000000" stroke-width="0" x="175.95" y="241.65" font-size="2.55" opacity="1.00" font-family="MS Shell Dlg">3</text>
        <text xml:space="preserve" fill="#000000" stroke-width="0" x="188.38" y="241.65" font-size="2.22" opacity="1.00" font-family="MS Shell Dlg">1</text>
        <path style="stroke:#000000;stroke-width:0.353" d="M174.54,238.83L174.54,242.50" />
        <path style="stroke:#000000;stroke-width:0.353" d="M186.97,238.83L186.97,242.50" />
      </g>
      <g id="Line4">
        <path style="stroke:#000000;stroke-width:0.353;fill:#f0f0ff" d="M151.00,242.50L193.98,242.50L193.98,246.17L151.00,246.17z" />
        <text xml:space="preserve" fill="#000000" stroke-width="0" x="152.41" y="245.32" font-size="2.74" opacity="1.00" font-family="MS Shell Dlg">BSA1017100607</text>
        <text xml:space="preserve" fill="#000000" stroke-width="0" x="175.95" y="245.32" font-size="2.70" opacity="1.00" font-family="MS Shell Dlg">4</text>
        <text xml:space="preserve" fill="#000000" stroke-width="0" x="188.38" y="245.32" font-size="2.22" opacity="1.00" font-family="MS Shell Dlg">1</text>
        <path style="stroke:#000000;stroke-width:0.353" d="M174.54,242.50L174.54,246.17" />
        <path style="stroke:#000000;stroke-width:0.353" d="M186.97,242.50L186.97,246.17" />
      </g>
    </g>
    <g id="hotspot.0" onmouseover="ShowHotSpot(evt,'0')" onmouseout="HideHotSpot(evt,'0')" onmousemove="ShowToolTip(evt,'0',&quot;BSA00600000 N&quot;)" opacity="0" onclick="javascript:viewPart(1)">
      <a xlink:href="">
        <path style="fill:#00ff00;fill-rule:evenodd" d="M103.02,238.83L103.02,242.50L146.00,242.50L146.00,238.83zM132.99,75.21L132.99,87.55L132.25,88.00L131.76,88.65L131.49,88.63L131.19,182.57L129.91,183.67L126.99,183.67L126.12,183.05L125.85,88.88L124.64,88.02L124.05,87.71L123.96,75.25L128.11,72.83L128.80,72.83zM159.24,113.23L159.59,112.88L159.98,112.93L159.96,115.48L159.61,115.48z" />
      </a>
    </g>
    <g id="hotspot.1" onmouseover="ShowHotSpot(evt,'1')" onmouseout="HideHotSpot(evt,'1')" onmousemove="ShowToolTip(evt,'1',&quot;BSA0650202000&quot;)" opacity="0" onclick="javascript:viewPart(2)">
      <a xlink:href="">
        <path style="fill:#00ff00;fill-rule:evenodd" d="M103.02,242.50L103.02,246.17L146.00,246.17L146.00,242.50zM134.77,49.97L134.92,51.89L135.71,51.98L134.95,52.39L134.76,58.13L133.75,58.94L132.97,58.92L130.91,55.62L129.30,56.56L128.41,56.51L128.23,62.00L126.91,62.80L126.44,62.78L124.39,59.49L122.76,60.43L122.26,60.42L122.27,51.88L130.31,47.31zM149.33,49.97L149.32,51.00L148.57,51.76L149.29,52.09L147.97,52.17L148.10,51.29L148.74,50.65L148.75,50.33L147.99,50.39L148.07,49.80L149.01,49.64zM143.15,51.38L143.28,51.21L146.94,51.19zM143.03,51.55L139.59,51.68L139.72,51.51L143.15,51.38zM139.46,51.85L135.71,51.98L135.85,51.81L139.59,51.68z" />
      </a>
    </g>
    <g id="hotspot.2" onmouseover="ShowHotSpot(evt,'2')" onmouseout="HideHotSpot(evt,'2')" onmousemove="ShowToolTip(evt,'2',&quot;BSA1002108076&quot;)" opacity="0" onclick="javascript:viewPart(3)">
      <a xlink:href="">
        <path style="fill:#00ff00;fill-rule:evenodd" d="M151.00,238.83L151.00,242.50L193.98,242.50L193.98,238.83zM130.60,36.62L131.19,37.51L131.19,41.79L130.89,42.39L129.99,42.97L129.72,47.15L129.01,47.65L127.89,47.65L127.32,47.32L127.04,43.15L126.14,42.26L125.81,41.40L124.73,41.00L125.84,40.90L126.13,37.03L126.91,36.32L128.78,36.02zM112.31,36.98L112.34,36.35L113.36,36.32L113.66,37.84L113.58,38.71L112.34,38.79L112.31,38.16L113.08,38.20L112.67,37.49L113.05,36.90zM115.55,38.30L114.43,38.11L115.41,38.13z" />
      </a>
    </g>
    <g id="hotspot.3" onmouseover="ShowHotSpot(evt,'3')" onmouseout="HideHotSpot(evt,'3')" onmousemove="ShowToolTip(evt,'3',&quot;BSA1017100607&quot;)" opacity="0" onclick="javascript:viewPart(4)">
      <a xlink:href="">
        <path style="fill:#00ff00;fill-rule:evenodd" d="M151.00,242.50L151.00,246.17L193.98,246.17L193.98,242.50zM129.78,65.62L128.90,65.64L129.04,65.44L129.68,65.42zM128.90,65.64L128.75,65.82L127.15,65.62L127.24,65.42zM130.32,66.01L130.47,67.03L131.87,67.42L130.47,67.51L130.31,69.40L129.35,68.70L129.68,68.40L128.48,68.10L127.24,68.21L127.13,68.03L127.64,67.77L127.35,67.49L127.13,68.03L126.70,68.24L126.69,65.82L127.15,65.62L127.30,65.99L126.94,66.36L126.97,66.92L129.93,66.92L130.02,66.60L129.32,66.05L129.78,65.62zM127.04,69.70L126.74,69.64L126.70,68.70zM129.42,69.89L127.48,69.98L127.47,69.63L129.16,69.59zM153.08,72.05L152.95,71.87L154.07,71.97zM156.10,72.85L155.84,73.53L154.83,72.93L154.91,72.06L155.72,71.05L155.85,71.08zM128.75,65.82L128.90,65.64L129.78,65.62L129.32,66.05L130.02,66.60L129.93,66.92L126.97,66.92L126.94,66.36L127.30,65.99L127.15,65.62zM129.70,67.79L129.31,67.89L129.41,67.51zM127.64,67.77L127.13,68.03L127.35,67.49z" />
      </a>
    </g>
    <g id="ToolTip" visibility="hidden" opacity="0" transform="translate(0,0)">
      <rect id="ToolTipShadow" opacity="0.20" fill="black" stroke="none" x="0" y="0" width="30" height="8" />
      <rect id="ToolTipBG" fill="#ffffe1" stroke="black" x="0" y="0" width="30" height="8" />
      <text xml:space="preserve" id="ToolTipText" fill="black" x="0" y="0" width="30" height="8">tooltip</text>
    </g>
  </g>
</svg>